HIERARCHY
ROOT Hips
{
	OFFSET 0.000000 0.000000 0.000000 
	CHANNELS 6 Xposition Yposition Zposition Zrotation Yrotation Xrotation
	JOINT LeftUpLeg
	{
		OFFSET 1.363060 -1.794630 0.839290 
		CHANNELS 3 Zrotation Yrotation Xrotation
		JOINT LeftLeg
		{
			OFFSET 2.448110 -6.726130 0.000000 
			CHANNELS 3 Zrotation Yrotation Xrotation
			JOINT LeftFoot
			{
				OFFSET 2.562200 -7.039590 0.000000 
				CHANNELS 3 Zrotation Yrotation Xrotation
				JOINT LeftToeBase
				{
					OFFSET 0.157640 -0.433110 2.322550 
					CHANNELS 3 Zrotation Yrotation Xrotation
					End Site
					{
						OFFSET 0.000000 0.000000 0.000000 
					}
				}
			}
		}
	}
	JOINT RightUpLeg
	{
		OFFSET -1.305520 -1.794630 0.839290 
		CHANNELS 3 Zrotation Yrotation Xrotation
		JOINT RightLeg
		{
			OFFSET -2.542530 -6.985550 0.000000 
			CHANNELS 3 Zrotation Yrotation Xrotation
			JOINT RightFoot
			{
				OFFSET -2.568260 -7.056230 0.000000 
				CHANNELS 3 Zrotation Yrotation Xrotation
				JOINT RightToeBase
				{
					OFFSET -0.164730 -0.452590 2.363150 
					CHANNELS 3 Zrotation Yrotation Xrotation
					End Site
					{
						OFFSET 0.000000 0.000000 0.000000 
					}
				}
			}
		}
	}
	JOINT Spine
	{
		OFFSET 0.028270 2.035590 -0.193380 
		CHANNELS 3 Zrotation Yrotation Xrotation
		JOINT Spine1
		{
			OFFSET 0.056720 2.048850 -0.042750 
			CHANNELS 3 Zrotation Yrotation Xrotation
			JOINT Neck1
			{
				OFFSET -0.054170 1.746240 0.172020 
				CHANNELS 3 Zrotation Yrotation Xrotation
				JOINT Head
				{
					OFFSET 0.104070 1.761360 -0.123970 
					CHANNELS 3 Zrotation Yrotation Xrotation
					End Site
					{
						OFFSET 0.000000 0.000000 0.000000 
					}
				}
			}
			JOINT LeftArm
			{
				OFFSET 3.362410 1.200890 -0.311210 
				CHANNELS 3 Zrotation Yrotation Xrotation
				JOINT LeftForeArm
				{
					OFFSET 4.983000 -0.000000 -0.000000 
					CHANNELS 3 Zrotation Yrotation Xrotation
					JOINT LeftHand
					{
						OFFSET 3.483560 -0.000000 -0.000000 
						CHANNELS 3 Zrotation Yrotation Xrotation
						JOINT LeftHandIndex1
						{
							OFFSET 0.715260 -0.000000 -0.000000 
							CHANNELS 3 Zrotation Yrotation Xrotation
							End Site
							{
								OFFSET 0.000000 0.000000 0.000000 
							}
						}
					}
				}
			}
			JOINT RightArm
			{
				OFFSET -3.136600 1.374050 -0.404650 
				CHANNELS 3 Zrotation Yrotation Xrotation
				JOINT RightForeArm
				{
					OFFSET -5.241900 -0.000000 -0.000000 
					CHANNELS 3 Zrotation Yrotation Xrotation
					JOINT RightHand
					{
						OFFSET -3.444170 -0.000000 -0.000000 
						CHANNELS 3 Zrotation Yrotation Xrotation
						JOINT RightHandIndex1
						{
							OFFSET -0.622530 -0.000000 -0.000000 
							CHANNELS 3 Zrotation Yrotation Xrotation
							End Site
							{
								OFFSET 0.000000 0.000000 0.000000 
							}
						}
					}
				}
			}
		}
	}
}
MOTION
Frames: 18
Frame Time: 0.041667
10.722489 17.851156 49.581472 -177.669574 -12.191328 -179.266534 -15.715973 -25.882309 -3.813252 -1.913003 8.891954 25.290203 -1.680130 7.482529 -2.150441 2.110100 -9.091800 -26.082800 28.966821 17.239407 -0.434355 2.776418 -7.723279 24.384719 5.884270 -26.945415 -29.535114 -2.049000 -8.967500 25.693600 3.063783 3.049492 2.285643 -5.167703 1.022335 -9.953561 4.442529 21.464175 10.801213 -1.252000 11.157000 4.671900 -89.382427 5.835185 29.634708 23.069496 -22.991047 -6.319992 1.936615 0.964950 16.713488 -7.125000 0.000000 0.000000 88.320110 -11.011875 44.304931 -20.386316 23.239271 -5.852641 1.267639 0.343775 16.140707 7.125000 0.000000 0.000000 
10.724613 17.852807 49.579703 -177.567676 -12.171467 -179.302339 -15.581829 -25.698542 -3.943415 -1.890334 8.921175 25.377612 -1.594559 7.286758 -2.070707 2.008500 -8.883800 -25.432500 29.103684 17.205568 -0.348048 2.793355 -7.681562 24.269639 5.960233 -27.076991 -29.387892 -2.059700 -8.989300 25.761800 3.128468 3.055802 2.297858 -5.178002 1.023832 -9.943665 4.586725 21.495830 10.763647 -1.209100 11.175500 4.625900 -89.498365 5.857790 31.224137 24.936644 -24.915310 -6.940957 1.965541 0.377059 11.450300 -7.125000 0.000000 0.000000 88.331403 -10.993672 44.345862 -20.339954 23.181899 -5.831214 1.270768 0.342887 16.088348 7.125000 0.000000 0.000000 
10.727090 17.855638 49.578406 -177.509259 -12.177443 -179.265505 -15.497904 -25.734143 -3.975127 -1.889890 8.916131 25.364508 -1.572393 7.236395 -2.043405 1.800500 -8.437600 -24.051200 29.161167 17.198210 -0.397511 2.796386 -7.682041 24.243578 6.052756 -27.270435 -29.290425 -1.991700 -8.848700 25.323100 3.213178 3.091134 2.301068 -5.209883 1.040423 -9.895920 4.714562 21.497160 10.757087 -1.154200 11.175300 4.600900 -89.464335 5.795686 29.608760 23.091304 -22.996543 -6.310367 1.915621 0.969480 16.821204 -7.125000 0.000000 0.000000 88.271110 -11.017290 44.315860 -20.384819 23.229756 -5.849316 1.269870 0.342260 16.059453 7.125000 0.000000 0.000000 
10.728741 17.857054 49.578288 -177.492995 -12.133775 -179.236744 -15.467139 -25.712621 -4.006224 -1.890960 8.914464 25.358306 -1.575282 7.243976 -2.047847 1.835300 -8.514300 -24.287500 29.170601 17.290369 -0.384098 2.808571 -7.674048 24.216524 6.047261 -27.332043 -29.441941 -1.957900 -8.777900 25.103000 3.303137 3.111098 2.329066 -5.169699 1.052398 -9.877618 4.585280 21.499745 10.715433 -1.183700 11.165900 4.609800 -89.601792 5.765515 31.002976 24.556419 -24.484803 -6.766189 1.915870 0.551084 12.636211 -7.125000 0.000000 0.000000 88.212969 -10.983226 44.274508 -20.367803 23.205900 -5.838861 1.272251 0.337816 16.116620 7.125000 0.000000 0.000000 
10.730511 17.857408 49.577816 -177.556610 -12.068282 -179.240992 -15.536136 -25.699861 -3.977105 -1.897730 8.908196 25.340261 -1.606177 7.314901 -2.088081 1.925300 -8.708800 -24.888600 29.112406 17.400082 -0.314764 2.818089 -7.666330 24.222688 5.916777 -27.143807 -29.742434 -2.025200 -8.918300 25.540000 3.338965 3.118751 2.426911 -5.119104 1.068641 -9.849890 4.678563 21.489246 10.782052 -1.123600 11.162700 4.636000 -89.546022 5.706710 29.704545 23.157669 -23.055364 -6.327397 1.900018 0.968525 16.832481 -7.125000 0.000000 0.000000 88.162890 -10.881759 44.294232 -20.327344 23.156459 -5.818960 1.275167 0.335127 16.134628 7.125000 0.000000 0.000000 
10.732398 17.857526 49.577108 -177.623644 -12.083162 -179.217166 -15.590803 -25.689405 -3.984680 -1.906240 8.900252 25.311575 -1.635200 7.381012 -2.103163 1.981700 -8.827900 -25.258400 29.025559 17.347054 -0.373146 2.809629 -7.675505 24.251232 5.850499 -26.931213 -29.676167 -2.121000 -9.113700 26.151600 3.342585 3.077757 2.429450 -5.041845 1.055996 -9.867436 4.867930 21.472710 10.928245 -1.041900 11.169500 4.668300 -89.615805 5.708214 30.878473 24.344441 -24.278693 -6.711210 1.928511 0.629408 13.348614 -7.125000 0.000000 0.000000 88.122148 -10.879757 44.385262 -20.346150 23.180151 -5.825811 1.275241 0.333681 16.114476 7.125000 0.000000 0.000000 
10.733577 17.857054 49.578288 -177.608445 -12.098789 -179.211579 -15.599676 -25.846633 -3.890232 -1.916094 8.884387 25.269222 -1.695481 7.521386 -2.187344 1.969200 -8.801700 -25.177000 29.027169 17.270948 -0.445217 2.796451 -7.693011 24.280489 5.893907 -26.935596 -29.463539 -2.114600 -9.100900 26.111400 3.369192 3.071094 2.390561 -5.054525 1.051917 -9.876316 4.807021 21.506114 10.747204 -1.086600 11.174100 4.599400 -89.594927 5.709580 29.675196 23.180123 -23.092173 -6.350303 1.912445 0.963331 16.777022 -7.125000 0.000000 0.000000 88.110217 -10.921216 44.379056 -20.384571 23.222756 -5.837411 1.274239 0.334746 16.050072 7.125000 0.000000 0.000000 
10.734521 17.855521 49.580765 -177.627245 -12.098479 -179.249363 -15.663229 -26.044053 -3.729996 -1.923974 8.867929 25.233999 -1.704536 7.541090 -2.260838 1.768200 -8.365600 -23.830100 29.009975 17.268636 -0.424639 2.789871 -7.700204 24.302902 5.902653 -26.935995 -29.421260 -2.077500 -9.025600 25.875500 3.367204 3.098279 2.390470 -5.054596 1.065289 -9.915936 4.527364 21.539086 10.436380 -1.214300 11.162900 4.511000 -89.673469 5.762953 30.891044 24.367014 -24.311763 -6.729374 1.936454 0.620755 13.333931 -7.125000 0.000000 0.000000 88.119849 -10.952132 44.225588 -20.397357 23.236736 -5.840715 1.273365 0.334748 16.104858 7.125000 0.000000 0.000000 
10.736173 17.854931 49.581472 -177.693114 -12.128899 -179.250651 -15.732355 -26.120497 -3.674673 -1.931741 8.855768 25.199801 -1.692115 7.510201 -2.256341 1.666700 -8.134300 -23.122800 28.943073 17.337062 -0.399996 2.788347 -7.703809 24.325307 5.833515 -26.797763 -29.512063 -2.124500 -9.120800 26.173900 3.313469 3.092389 2.385643 -5.054912 1.063868 -9.929227 4.702907 21.494963 10.591382 -1.141900 11.155500 4.544100 -89.607535 5.816612 30.149552 23.528536 -23.454025 -6.460910 1.924932 0.872962 15.819316 -7.125000 0.000000 0.000000 88.141576 -10.945576 44.177257 -20.356589 23.190225 -5.827665 1.273789 0.332806 16.273711 7.125000 0.000000 0.000000 
10.738414 17.856818 49.580647 -177.702626 -12.145226 -179.200887 -15.726312 -26.173956 -3.687219 -1.939727 8.847065 25.166533 -1.751488 7.647934 -2.285954 1.849200 -8.544500 -24.380700 28.937327 17.344731 -0.450364 2.784828 -7.714432 24.340063 5.855236 -26.832336 -29.470794 -2.159600 -9.191000 26.394600 3.305250 3.071033 2.352306 -5.046781 1.055982 -9.900722 4.581362 21.574198 10.393418 -1.196200 11.178200 4.485500 -89.579515 5.841429 29.868177 23.267823 -23.179216 -6.375701 1.910597 0.942894 16.713195 -7.125000 0.000000 0.000000 88.113996 -10.892338 44.385629 -20.302453 23.124505 -5.805459 1.276972 0.332535 16.201131 7.125000 0.000000 0.000000 
10.740183 17.858705 49.580883 -177.685094 -12.129786 -179.160923 -15.705249 -26.275756 -3.674312 -1.942811 8.846098 25.155886 -1.812752 7.792108 -2.357395 1.967200 -8.797500 -25.164000 28.965726 17.249824 -0.521154 2.778452 -7.721801 24.335627 5.980359 -27.050985 -29.261018 -2.089600 -9.050300 25.952700 3.268283 3.064010 2.273924 -5.083412 1.043693 -9.932822 4.630555 21.594240 10.471958 -1.175200 11.195400 4.508200 -89.540113 5.860690 29.926463 23.277328 -23.190748 -6.381318 1.900214 0.952444 16.647909 -7.125000 0.000000 0.000000 88.111637 -10.851583 44.575509 -20.289224 23.113446 -5.802750 1.275304 0.341673 15.982103 7.125000 0.000000 0.000000 
10.741009 17.856228 49.581472 -177.617911 -12.140506 -179.204626 -15.706768 -26.575611 -3.491565 -1.943160 8.843931 25.154787 -1.919558 8.039897 -2.502153 1.826200 -8.494300 -24.225700 29.058725 17.232859 -0.494378 2.780498 -7.720500 24.325901 6.019428 -27.158947 -29.255251 -2.040500 -8.949900 25.638600 3.262160 3.069116 2.208072 -5.155514 1.031994 -10.017940 4.779623 21.598370 10.526858 -1.120100 11.204800 4.504700 -89.509694 5.917317 30.068487 23.285035 -23.196732 -6.381714 1.888458 0.958445 16.578944 -7.125000 0.000000 0.000000 88.141630 -10.890479 44.587469 -20.310219 23.141989 -5.814396 1.271524 0.348296 15.941319 7.125000 0.000000 0.000000 
10.742070 17.852807 49.581590 -177.577101 -12.135780 -179.254154 -15.671578 -26.466947 -3.518245 -1.937356 8.852727 25.181203 -1.952347 8.114146 -2.456314 1.816500 -8.472900 -24.159800 29.116137 17.303214 -0.441037 2.787366 -7.714529 24.312285 6.010110 -27.193102 -29.358232 -2.026000 -8.920100 25.545800 3.331804 3.090472 2.212179 -5.165484 1.040845 -10.055878 4.854608 21.580825 10.520361 -1.089800 11.195600 4.486900 -89.543223 5.945078 30.249358 23.306802 -23.206584 -6.381334 1.858790 0.975155 16.508633 -7.125000 0.000000 0.000000 88.118830 -10.936351 44.546482 -20.312486 23.137988 -5.807629 1.274552 0.338752 16.096730 7.125000 0.000000 0.000000 
10.743014 17.853751 49.583124 -177.637728 -12.128308 -179.181163 -15.653788 -26.162804 -3.742525 -1.932684 8.870010 25.210212 -1.932671 8.069556 -2.344133 2.078600 -9.028000 -25.882900 29.026984 17.396970 -0.473332 2.798509 -7.707678 24.290758 5.973792 -27.165233 -29.511136 -2.045100 -8.959300 25.668100 3.244597 3.105058 2.146488 -5.186183 1.046421 -10.071563 4.866530 21.563579 10.510623 -1.090000 11.187200 4.483100 -89.528226 5.964028 30.648286 23.522914 -23.416814 -6.441701 1.823943 0.954960 15.857590 -7.125000 0.000000 0.000000 88.162952 -10.947896 44.502647 -20.286093 23.104907 -5.797130 1.276361 0.334400 16.200255 7.125000 0.000000 0.000000 
10.743722 17.855403 49.585955 -177.639606 -12.172955 -179.139751 -15.683634 -26.467187 -3.622248 -1.936784 8.864686 25.194245 -1.973546 8.167252 -2.509369 2.082200 -9.035300 -25.905700 28.998725 17.365000 -0.535985 2.799564 -7.713884 24.303239 5.923814 -27.068626 -29.579200 -2.123900 -9.119400 26.169700 3.164205 3.078918 2.115049 -5.228427 1.025587 -10.060189 4.736752 21.573026 10.474359 -1.147900 11.189200 4.495600 -89.475882 6.137716 31.980576 23.833194 -23.642786 -6.468647 1.676676 0.949387 16.267191 -7.125000 0.000000 0.000000 88.217562 -10.910392 44.464356 -20.274579 23.096800 -5.801921 1.273913 0.340413 16.169837 7.125000 0.000000 0.000000 
10.744076 17.856464 49.586663 -177.601156 -12.199453 -179.191758 -15.680703 -26.616158 -3.508098 -1.937556 8.853439 25.179806 -1.922768 8.049926 -2.550916 1.853300 -8.553700 -24.408800 29.042378 17.164580 -0.590841 2.774802 -7.734991 24.351819 6.029569 -27.164438 -29.216879 -2.089900 -9.050800 25.954400 3.218194 3.044724 2.226363 -5.219092 1.010418 -9.999632 4.596473 21.600284 10.446968 -1.196100 11.198100 4.513100 -89.437238 6.010380 32.004552 23.863792 -23.681241 -6.477173 1.721631 0.896608 15.922176 -7.125000 0.000000 0.000000 88.178679 -10.830951 44.457635 -20.276206 23.098465 -5.801092 1.274298 0.340531 16.158753 7.125000 0.000000 0.000000 
10.744783 17.856228 49.585247 -177.613887 -12.139829 -179.206760 -15.692292 -26.516705 -3.540323 -1.941239 8.852443 25.170892 -1.986202 8.194995 -2.519122 1.904400 -8.664000 -24.749800 29.049390 17.150632 -0.599056 2.757502 -7.750217 24.379165 6.162227 -27.363476 -28.927607 -1.979500 -8.823200 25.243900 3.213112 3.053808 2.267578 -5.226244 1.015746 -9.986883 4.658730 21.613313 10.513112 -1.162300 11.209400 4.533500 -89.404491 5.973523 32.124719 23.791846 -23.609241 -6.460315 1.715575 0.923846 16.099619 -7.125000 0.000000 0.000000 88.163178 -10.822796 44.500916 -20.284419 23.104848 -5.798639 1.275883 0.336205 16.228018 7.125000 0.000000 0.000000 
10.745727 17.854341 49.584893 -177.622340 -12.094138 -179.156712 -15.750096 -26.800876 -3.416701 -1.951789 8.847750 25.141004 -2.198774 8.687978 -2.705294 2.066700 -9.003600 -25.806500 29.036371 17.228059 -0.638306 2.755884 -7.760425 24.383882 6.198032 -27.425219 -28.869073 -1.933800 -8.726800 24.944500 3.130835 3.080429 2.106191 -5.285029 1.014339 -10.073181 4.714058 21.616980 10.539032 -1.149600 11.215500 4.528100 -89.371830 6.063807 32.225635 23.872606 -23.697479 -6.490576 1.715704 0.905949 15.771041 -7.125000 0.000000 0.000000 88.250402 -10.931046 44.484270 -20.296358 23.116336 -5.799059 1.276164 0.332078 16.342324 7.125000 0.000000 0.000000 
